#!OML:ASF F:\VICON\USERDATA\INSTALL\rory3\rory3.ASF
:FULLY-SPECIFIED
:DEGREES
16
root -0.851896 17.8864 -20.4995 5.96544 1.78911 3.45691
lowerback 17.6494 -3.30532 -6.30418
upperback 1.67921 -5.67959 -1.29175
thorax -7.57695 -2.55772 3.49533
lowerneck -4.05591 2.78276 -0.57137
upperneck -11.3919 3.54009 -2.23832
head -2.89739 1.84493 -0.666154
rclavicle 1.21259e-014 2.22639e-014
rhumerus -55.0771 5.42726 -81.5564
rradius 85.6107
rwrist 3.37929
rhand -36.3816 32.0657
rfingers 7.12502
rthumb -9.47805 2.29882
lclavicle 1.21259e-014 2.22639e-014
lhumerus -12.9247 -10.9315 84.4698
lradius 114.311
lwrist 32.7763
lhand -37.5286 6.84474
lfingers 7.12502
lthumb -10.5846 36.5582
rfemur -43.6395 -0.955695 17.7527
rtibia 94.4729
rfoot 10.3657 -2.68729
rtoes 10.2994
lfemur 3.5289 -2.32029 -27.5256
ltibia 27.5265
lfoot -3.60748 -5.34887
ltoes -25.7986
17
root -0.862312 17.9758 -19.9695 6.25287 1.57802 3.32857
lowerback 17.423 -3.43199 -6.28466
upperback 1.32006 -5.83128 -1.09326
thorax -7.80948 -2.6122 3.72897
lowerneck -3.69036 2.92306 -0.547473
upperneck -11.3778 3.70627 -2.44046
head -2.95279 1.93366 -0.744039
rclavicle 4.55217e-014 -3.18055e-015
rhumerus -56.4792 5.44665 -81.5201
rradius 85.6956
rwrist 3.06375
rhand -36.5719 32.9645
rfingers 7.12502
rthumb -9.66158 3.20607
lclavicle 4.55217e-014 -3.18055e-015
lhumerus -13.3925 -10.9738 84.8021
lradius 115.131
lwrist 33.6486
lhand -37.396 6.54829
lfingers 7.12502
lthumb -10.4566 36.2682
rfemur -44.7269 0.072722 17.7984
rtibia 90.9071
rfoot 9.57136 -2.53736
rtoes 9.73698
lfemur 5.75051 -2.31647 -27.2723
ltibia 25.0638
lfoot 0.570665 -5.49114
ltoes -25.2389
18
root -0.868388 18.0764 -19.4268 6.4606 1.45881 3.11821
lowerback 17.3216 -3.55427 -6.07972
upperback 0.905508 -5.95461 -0.906682
thorax -8.19414 -2.65084 3.85478
lowerneck -3.18201 3.04336 -0.420575
upperneck -11.3012 3.84017 -2.70265
head -3.00983 2.00481 -0.860899
rclavicle 4.41302e-014 -7.15625e-015
rhumerus -58.0503 5.40869 -81.4395
rradius 85.6015
rwrist 2.86866
rhand -36.8422 34.2455
rfingers 7.12502
rthumb -9.92241 4.49938
lclavicle 4.41302e-014 -7.15625e-015
lhumerus -13.9607 -11.1122 85.1696
lradius 115.85
lwrist 34.4733
lhand -36.7409 6.56454
lfingers 7.12502
lthumb -9.82468 36.3153
rfemur -45.3995 0.927433 17.8968
rtibia 86.9738
rfoot 8.52727 -2.36137
rtoes 7.18419
lfemur 8.13765 -2.51584 -26.9728
ltibia 22.3527
lfoot 5.23193 -5.02359
ltoes -24.3045
19
root -0.873382 18.181 -18.8795 6.59693 1.23406 2.90114
lowerback 17.2155 -3.70281 -5.95153
upperback 0.469322 -6.11974 -0.635068
thorax -8.57883 -2.70454 4.12552
lowerneck -2.7582 3.25791 -0.710594
upperneck -10.9127 4.13348 -2.67702
head -2.9574 2.16038 -0.80998
rclavicle -6.95746e-014 1.43125e-014
rhumerus -59.7173 5.70729 -81.2948
rradius 85.7799
rwrist 2.46317
rhand -37.2881 34.8616
rfingers 7.12502
rthumb -10.3526 5.13645
lclavicle -6.95746e-014 1.43125e-014
lhumerus -14.8846 -11.4018 85.6664
lradius 116.729
lwrist 34.499
lhand -37.4587 7.40231
lfingers 7.12502
lthumb -10.5171 37.1192
rfemur -45.7546 1.75991 17.9421
rtibia 82.7518
rfoot 7.38788 -2.12394
rtoes 6.27281
lfemur 10.7485 -2.67753 -26.7283
ltibia 19.2302
lfoot 10.3049 -3.8543
ltoes -23.9859
20
root -0.876024 18.2728 -18.3287 6.73719 0.860119 2.70104
lowerback 16.34 -3.55245 -5.4994
upperback 2.16099 -5.69687 -0.750998
thorax -6.35546 -2.64797 3.49808
lowerneck -10.493 3.18786 -0.181303
upperneck -8.38359 4.13393 -2.6928
head -0.820422 2.06943 -0.700451
rclavicle -3.65764e-014 0
rhumerus -57.1922 4.02046 -81.1506
rradius 85.7585
rwrist 1.92548
rhand -37.0149 34.7847
rfingers 7.12502
rthumb -10.0891 5.04656
lclavicle -3.65764e-014 0
lhumerus -11.1838 -12.5769 84.7907
lradius 116.986
lwrist 34.5739
lhand -37.7791 7.72777
lfingers 7.12502
lthumb -10.8262 37.4287
rfemur -45.9221 2.53182 17.9155
rtibia 78.3131
rfoot 6.53319 -1.86326
rtoes 7.64098
lfemur 13.6295 -2.69043 -26.5591
ltibia 15.4752
lfoot 15.6027 -1.73257
ltoes -22.5106
